<svg xmlns="http://www.w3.org/2000/svg" width="47" height="47" fill="none" viewBox="0 0 47 47">
  <path fill="#fff" d="M32.227 25.167a14.09 14.09 0 0 0 4.834-7.107c.83-2.811.758-5.81-.206-8.579a14.1 14.1 0 0 0-5.171-6.868A14.223 14.223 0 0 0 23.465 0a14.22 14.22 0 0 0-8.219 2.613 14.09 14.09 0 0 0-5.17 6.868 14.018 14.018 0 0 0-.207 8.579 14.09 14.09 0 0 0 4.834 7.107 23.602 23.602 0 0 0-10.015 7.586A23.414 23.414 0 0 0 .014 44.379a2.35 2.35 0 0 0 .508 1.736 2.385 2.385 0 0 0 3.34.365 2.36 2.36 0 0 0 .875-1.584 18.755 18.755 0 0 1 6.184-11.91 18.952 18.952 0 0 1 12.591-4.782c4.646 0 9.128 1.702 12.592 4.781a18.756 18.756 0 0 1 6.183 11.91c.064.578.341 1.11.777 1.497.436.386 1 .597 1.585.594h.26a2.365 2.365 0 0 0 1.574-.866 2.34 2.34 0 0 0 .504-1.718 23.415 23.415 0 0 0-4.698-11.653 23.604 23.604 0 0 0-10.063-7.582Zm-8.762-1.668a9.484 9.484 0 0 1-5.248-1.583 9.406 9.406 0 0 1-3.48-4.216 9.346 9.346 0 0 1-.537-5.428 9.379 9.379 0 0 1 2.585-4.81 9.463 9.463 0 0 1 4.837-2.571 9.495 9.495 0 0 1 5.458.534 9.435 9.435 0 0 1 4.24 3.46 9.358 9.358 0 0 1-1.175 11.863 9.473 9.473 0 0 1-6.68 2.751Z"/>
</svg>
