<svg xmlns="http://www.w3.org/2000/svg" width="480" height="551" fill="none" viewBox="0 0 480 551">
  <g clip-path="url(#a)">
    <path fill="#000" stroke="#000" stroke-linecap="round" stroke-linejoin="round" stroke-miterlimit="10" stroke-width="10" d="M381.432 228.544h-209.38c-40.169 0-72.732 32.563-72.732 72.732s32.563 72.732 72.732 72.732c28.264 0 52.762-16.122 64.801-39.672h79.779c12.038 23.55 36.536 39.672 64.8 39.672 40.169 0 72.732-32.563 72.732-72.732s-32.563-72.732-72.732-72.732Z" opacity=".41"/>
    <path stroke="#000" stroke-linecap="round" stroke-linejoin="round" stroke-miterlimit="10" stroke-width="10" d="M276.742 210.781v-65.822c0-7.532-6.106-13.638-13.638-13.638H159.793c-7.532 0-13.638-6.105-13.638-13.637 0-7.533 6.106-13.638 13.638-13.638h219.021c7.532 0 13.638-6.106 13.638-13.638s-6.106-13.638-13.638-13.638H290.38c-7.532 0-13.638-6.105-13.638-13.637V4.959" opacity=".41"/>
    <path stroke="#663C3B" stroke-linejoin="round" stroke-miterlimit="10" stroke-width="10" d="M276.742 203.434v-65.821c0-7.532-6.106-13.638-13.638-13.638H159.793c-7.532 0-13.638-6.106-13.638-13.638s6.106-13.638 13.638-13.638h219.021c7.532 0 13.638-6.105 13.638-13.637 0-7.533-6.106-13.638-13.638-13.638H290.38c-7.532 0-13.638-6.106-13.638-13.638V0"/>
    <path fill="#663C3B" d="M292.721 208.829h-31.958v6.887h31.958v-6.887Z"/>
    <path fill="#663C3B" d="M288.173 205.385h-22.862v5.396h22.862v-5.396Z"/>
    <path fill="#663C3B" d="M285.143 201.942h-16.802v5.165h16.802v-5.165Z"/>
    <path fill="#FEC556" d="M381.432 215.871h-209.38c-40.169 0-72.732 32.563-72.732 72.732s32.563 72.732 72.732 72.732c28.264 0 52.762-16.122 64.801-39.672h79.779c12.038 23.55 36.536 39.672 64.8 39.672 40.169 0 72.732-32.563 72.732-72.732s-32.563-72.732-72.732-72.732Z"/>
    <path fill="#F29940" d="M265.442 244.414h-15.428a2.204 2.204 0 0 1 0-4.408h15.428a2.204 2.204 0 0 1 0 4.408Zm43.363.181h-31.377a2.204 2.204 0 1 1 0-4.408h31.377a2.204 2.204 0 0 1 0 4.408Zm-.036 9.095h-58.824a2.204 2.204 0 1 1 0-4.408h58.824a2.204 2.204 0 1 1 0 4.408Zm-59.507 45.35a4.96 4.96 0 0 1 0-7.013l16.365-16.364a4.958 4.958 0 0 1 7.013 0 4.958 4.958 0 0 1 0 7.013l-16.364 16.364a4.96 4.96 0 0 1-7.014 0Zm36.917 0a4.96 4.96 0 0 1 0-7.013l16.364-16.364a4.958 4.958 0 0 1 7.013 0 4.958 4.958 0 0 1 0 7.013l-16.364 16.364a4.958 4.958 0 0 1-7.013 0Z"/>
    <path fill="#F29940" d="M172.052 222.236h209.38c39.306 0 71.323 30.643 72.682 68.945.03-.856.05-1.715.05-2.578 0-40.169-32.563-72.732-72.732-72.732h-209.38c-40.169 0-72.732 32.563-72.732 72.732 0 .864.02 1.722.05 2.578 1.359-38.302 33.376-68.945 72.682-68.945Z"/>
    <path fill="#F29940" d="M381.432 351.968c-28.264 0-51.109-11.714-63.148-35.264H235.2c-12.039 23.55-34.884 35.264-63.148 35.264-38.595 0-70.163-30.063-72.578-68.048a73.687 73.687 0 0 0-.154 4.683c0 40.169 32.563 72.732 72.732 72.732 28.264 0 52.762-16.122 64.801-39.672h79.779c12.038 23.55 36.536 39.672 64.8 39.672 40.169 0 72.732-32.563 72.732-72.732 0-1.573-.055-3.134-.154-4.683-2.415 37.985-33.983 68.048-72.578 68.048Z"/>
    <path fill="#F29940" d="M172.332 339.416c25.866 0 46.835-20.969 46.835-46.835s-20.969-46.835-46.835-46.835-46.835 20.969-46.835 46.835 20.969 46.835 46.835 46.835Z"/>
    <path fill="#835559" d="M172.332 334.887c25.562 0 46.284-20.722 46.284-46.284 0-25.562-20.722-46.284-46.284-46.284-25.562 0-46.284 20.722-46.284 46.284 0 25.562 20.722 46.284 46.284 46.284Z"/>
    <path fill="#95676B" d="M172.332 327.724c21.606 0 39.121-17.515 39.121-39.121s-17.515-39.121-39.121-39.121-39.121 17.515-39.121 39.121 17.515 39.121 39.121 39.121Z"/>
    <path fill="#663C3B" d="M200.1 279.787h-18.952v-18.952c0-1.4-1.136-2.537-2.537-2.537h-12.559a2.537 2.537 0 0 0-2.537 2.537v18.952h-18.952a2.537 2.537 0 0 0-2.537 2.537v12.559a2.537 2.537 0 0 0 2.537 2.537h18.952v18.952a2.537 2.537 0 0 0 2.537 2.537h12.559a2.537 2.537 0 0 0 2.537-2.537V297.42H200.1a2.537 2.537 0 0 0 2.537-2.537v-12.559a2.537 2.537 0 0 0-2.537-2.537Z"/>
    <path stroke="#663C3B" stroke-linecap="round" stroke-linejoin="round" stroke-miterlimit="10" stroke-width="6" d="M172.332 334.887c25.562 0 46.284-20.722 46.284-46.284 0-25.562-20.722-46.284-46.284-46.284-25.562 0-46.284 20.722-46.284 46.284 0 25.562 20.722 46.284 46.284 46.284Z"/>
    <path fill="#F29940" d="M381.712 339.416c25.866 0 46.835-20.969 46.835-46.835s-20.969-46.835-46.835-46.835-46.835 20.969-46.835 46.835 20.969 46.835 46.835 46.835Z"/>
    <path fill="#835559" d="M381.712 334.887c25.562 0 46.284-20.722 46.284-46.284 0-25.562-20.722-46.284-46.284-46.284-25.562 0-46.284 20.722-46.284 46.284 0 25.562 20.722 46.284 46.284 46.284Z"/>
    <path fill="#95676B" d="M381.712 327.724c21.606 0 39.121-17.515 39.121-39.121s-17.515-39.121-39.121-39.121-39.121 17.515-39.121 39.121 17.515 39.121 39.121 39.121Z"/>
    <path stroke="#663C3B" stroke-linecap="round" stroke-linejoin="round" stroke-miterlimit="10" stroke-width="6" d="M381.712 334.887c25.562 0 46.284-20.722 46.284-46.284 0-25.562-20.722-46.284-46.284-46.284-25.562 0-46.284 20.722-46.284 46.284 0 25.562 20.722 46.284 46.284 46.284Z"/>
    <path fill="#FEC556" d="m168.776 268.453 3.056-5.294a.576.576 0 0 1 .999 0l3.056 5.294a.577.577 0 0 1-.499.865h-6.113a.577.577 0 0 1-.499-.865Zm0 40.301 3.056 5.294a.576.576 0 0 0 .999 0l3.056-5.294a.576.576 0 0 0-.499-.865h-6.113a.576.576 0 0 0-.499.865Z"/>
    <path stroke="#663C3B" stroke-linecap="round" stroke-linejoin="round" stroke-miterlimit="10" stroke-width="3" d="M200.1 279.787h-18.952v-18.952c0-1.4-1.136-2.537-2.537-2.537h-12.559a2.537 2.537 0 0 0-2.537 2.537v18.952h-18.952a2.537 2.537 0 0 0-2.537 2.537v12.559a2.537 2.537 0 0 0 2.537 2.537h18.952v18.952a2.537 2.537 0 0 0 2.537 2.537h12.559a2.537 2.537 0 0 0 2.537-2.537V297.42H200.1a2.537 2.537 0 0 0 2.537-2.537v-12.559a2.537 2.537 0 0 0-2.537-2.537Z"/>
    <path fill="#FEC556" d="m191.538 285.048 5.294 3.056a.577.577 0 0 1 0 .999l-5.294 3.057a.578.578 0 0 1-.866-.5v-6.113c0-.444.481-.721.866-.499Zm-39.357 0-5.294 3.056a.577.577 0 0 0 0 .999l5.294 3.057a.577.577 0 0 0 .865-.5v-6.113a.577.577 0 0 0-.865-.499Z"/>
    <path stroke="#663C3B" stroke-linecap="round" stroke-linejoin="round" stroke-miterlimit="10" stroke-width="8" d="M142.026 218.867a75.605 75.605 0 0 1 30.305-6.302h49.171m110.2 0h50.01a75.628 75.628 0 0 1 30.307 6.302l-80.317-6.302Z"/>
    <path stroke="#663C3B" stroke-linecap="round" stroke-linejoin="round" stroke-miterlimit="10" stroke-width="6" d="M381.432 215.871h-209.38c-40.169 0-72.732 32.563-72.732 72.732s32.563 72.732 72.732 72.732c28.264 0 52.762-16.122 64.801-39.672h79.779c12.038 23.55 36.536 39.672 64.8 39.672 40.169 0 72.732-32.563 72.732-72.732s-32.563-72.732-72.732-72.732Z"/>
    <path fill="#000" d="m389.181 281.819-21.818 21.818c-4.734 4.735-12.409 4.735-17.144 0-4.734-4.734-4.734-12.409 0-17.143l21.819-21.818c4.734-4.735 12.409-4.735 17.143 0 4.734 4.734 4.734 12.409 0 17.143Z" opacity=".17"/>
    <path fill="#FEC556" d="m388.079 279.615-21.818 21.818c-4.734 4.735-12.409 4.735-17.144 0-4.734-4.734-4.734-12.409 0-17.143l21.819-21.818c4.734-4.735 12.409-4.735 17.143 0 4.734 4.734 4.734 12.409 0 17.143Z"/>
    <path stroke="#663C3B" stroke-linecap="round" stroke-linejoin="round" stroke-miterlimit="10" stroke-width="3" d="m388.079 279.615-21.818 21.818c-4.734 4.735-12.409 4.735-17.144 0-4.734-4.734-4.734-12.409 0-17.143l21.819-21.818c4.734-4.735 12.409-4.735 17.143 0 4.734 4.734 4.734 12.409 0 17.143Z"/>
    <path fill="#32B94D" d="M357.689 300.576a7.714 7.714 0 1 0 0-15.428 7.714 7.714 0 0 0 0 15.428Z"/>
    <path stroke="#663C3B" stroke-linecap="round" stroke-linejoin="round" stroke-miterlimit="10" stroke-width="2" d="M352.749 292.43a4.958 4.958 0 0 1 5.372-4.508"/>
    <path stroke="#663C3B" stroke-linecap="round" stroke-linejoin="round" stroke-miterlimit="10" stroke-width="3" d="M357.689 300.576a7.714 7.714 0 1 0 0-15.428 7.714 7.714 0 0 0 0 15.428Z"/>
    <path fill="#8BD8F5" d="M379.508 278.757a7.714 7.714 0 1 0 0-15.428 7.714 7.714 0 0 0 0 15.428Z"/>
    <path stroke="#663C3B" stroke-linecap="round" stroke-linejoin="round" stroke-miterlimit="10" stroke-width="2" d="M374.549 271.043a4.958 4.958 0 0 1 4.959-4.958"/>
    <path stroke="#663C3B" stroke-linecap="round" stroke-linejoin="round" stroke-miterlimit="10" stroke-width="3" d="M379.508 278.757a7.714 7.714 0 1 0 0-15.428 7.714 7.714 0 0 0 0 15.428Z"/>
    <path fill="#000" d="m414.857 296.294-21.819 21.819c-4.734 4.734-12.409 4.734-17.143 0-4.734-4.735-4.734-12.409 0-17.144l21.818-21.818c4.735-4.734 12.41-4.734 17.144 0 4.734 4.734 4.734 12.41 0 17.143Z" opacity=".17"/>
    <path fill="#FEC556" d="m414.306 293.539-21.819 21.819c-4.734 4.734-12.409 4.734-17.143 0-4.734-4.735-4.734-12.409 0-17.144l21.818-21.818c4.735-4.734 12.41-4.734 17.144 0 4.734 4.734 4.734 12.41 0 17.143Z"/>
    <path stroke="#663C3B" stroke-linecap="round" stroke-linejoin="round" stroke-miterlimit="10" stroke-width="3" d="m414.306 293.539-21.819 21.819c-4.734 4.734-12.409 4.734-17.143 0-4.734-4.735-4.734-12.409 0-17.144l21.818-21.818c4.735-4.734 12.41-4.734 17.144 0 4.734 4.734 4.734 12.41 0 17.143Z"/>
    <path fill="#FEF585" d="M383.916 314.5a7.714 7.714 0 1 0 0-15.428 7.714 7.714 0 0 0 0 15.428Z"/>
    <path stroke="#663C3B" stroke-linecap="round" stroke-linejoin="round" stroke-miterlimit="10" stroke-width="2" d="M378.957 306.786a4.959 4.959 0 0 1 4.959-4.959"/>
    <path stroke="#663C3B" stroke-linecap="round" stroke-linejoin="round" stroke-miterlimit="10" stroke-width="3" d="M383.916 314.5a7.714 7.714 0 1 0 0-15.428 7.714 7.714 0 0 0 0 15.428Z"/>
    <path fill="#E7503B" d="M405.734 292.682a7.714 7.714 0 1 0 0-15.428 7.714 7.714 0 0 0 0 15.428Z"/>
    <path stroke="#663C3B" stroke-linecap="round" stroke-linejoin="round" stroke-miterlimit="10" stroke-width="2" d="M400.775 284.968a4.959 4.959 0 0 1 4.959-4.959"/>
    <path stroke="#663C3B" stroke-linecap="round" stroke-linejoin="round" stroke-miterlimit="10" stroke-width="3" d="M405.734 292.682a7.714 7.714 0 1 0 0-15.428 7.714 7.714 0 0 0 0 15.428Z"/>
    <path fill="#663C3B" d="M249.262 296.836a4.96 4.96 0 0 1 0-7.013l16.365-16.364a4.958 4.958 0 0 1 7.013 0 4.958 4.958 0 0 1 0 7.013l-16.364 16.364a4.96 4.96 0 0 1-7.014 0Zm36.917 0a4.96 4.96 0 0 1 0-7.013l16.364-16.364a4.958 4.958 0 0 1 7.013 0 4.958 4.958 0 0 1 0 7.013l-16.364 16.364a4.958 4.958 0 0 1-7.013 0Z"/>
    <path fill="#FEC556" d="M172.332 297.419a8.816 8.816 0 1 0 0-17.632 8.816 8.816 0 0 0 0 17.632Z"/>
    <path fill="#F29940" d="M172.332 295.617c-4.475 0-8.299-3.54-8.767-7.915a8.419 8.419 0 0 0-.049.902c0 4.779 4.038 8.816 8.816 8.816 4.778 0 8.816-4.037 8.816-8.816 0-.304-.017-.605-.049-.902-.469 4.375-4.292 7.915-8.767 7.915Z"/>
    <path stroke="#663C3B" stroke-linecap="round" stroke-linejoin="round" stroke-miterlimit="10" stroke-width="2" d="M165.72 292.603c0-3.584 3.028-6.612 6.612-6.612"/>
  </g>
  <defs>
    <clipPath id="a">
      <path fill="#fff" d="M0 0h551v551H0z"/>
    </clipPath>
  </defs>
</svg>
