<svg xmlns="http://www.w3.org/2000/svg" width="47" height="47" fill="none" viewBox="0 0 47 47">
  <path fill="#fff" d="M16.648 22.274c.989 0 1.79.796 1.79 1.777v2.335h2.372a1.794 1.794 0 0 1 1.71.823c.364.577.364 1.31 0 1.887a1.794 1.794 0 0 1-1.71.823h-2.372v2.356a1.804 1.804 0 0 1-1.79 1.777c-1-.012-1.79-.804-1.79-1.777v-2.356h-2.372a1.794 1.794 0 0 1-1.71-.823 1.766 1.766 0 0 1 0-1.887 1.794 1.794 0 0 1 1.71-.823h2.372V24.05l.017-.241a1.786 1.786 0 0 1 1.773-1.536Zm16.648 8.72a1.799 1.799 0 0 1 1.936-.393c.214.1.41.232.582.393.684.688.68 1.796-.01 2.478a1.778 1.778 0 0 1-2.497 0 1.748 1.748 0 0 1-.01-2.478Zm-3.412-8.265a1.76 1.76 0 0 1 1.331 0c.223.095.427.227.604.392.33.33.517.775.52 1.24.003.233-.04.465-.125.682-.082.222-.218.42-.395.578a1.82 1.82 0 0 1-2.497 0 1.71 1.71 0 0 1 0-2.5 1.59 1.59 0 0 1 .562-.392Zm17.105-.363c-.315-7.237-6.444-12.777-13.83-12.725a1.64 1.64 0 0 0-1.616 1.662c.011.902.75 1.645 1.659 1.617 5.75-.115 10.267 4.045 10.509 9.585.011.216.014.434.007.693v10.198a9.953 9.953 0 0 1-2.78 7.157 9.954 9.954 0 0 1-7.031 3.095c-.219.005-.44 0-.755-.009-6.521.11-13.014.11-19.401.002a10.016 10.016 0 0 1-10.47-10.28v-10.2c-.12-5.533 4.282-10.13 9.819-10.248.216-.007.437 0 .723.007h11.015a1.64 1.64 0 0 0 1.64-1.64V9.081c-.047-3.404-2.836-6.151-6.218-6.151h-2.387c-.346 0-.672-.134-.922-.379a1.293 1.293 0 0 1-.397-.928A1.641 1.641 0 0 0 14.916 0h-.018a1.64 1.64 0 0 0-1.622 1.657 4.574 4.574 0 0 0 1.38 3.236c.878.865 2.034 1.267 3.25 1.319h2.342c1.608 0 2.93 1.302 2.95 2.889v.54l-9.304.002a15.497 15.497 0 0 0-.872-.011C5.685 9.792-.157 15.893.003 23.198v10.13c-.004.29-.002.578.01.87.322 7.333 6.533 13.08 13.782 12.72 3.152.056 6.36.082 9.581.082 3.24 0 6.496-.026 9.734-.085a13.208 13.208 0 0 0 10.197-4.094 13.192 13.192 0 0 0 3.689-9.46V23.238c.007-.29.005-.58-.007-.872Z"/>
</svg>
