<svg xmlns="http://www.w3.org/2000/svg" width="47" height="47" fill="none" viewBox="0 0 47 47">
  <path fill="#fff" d="M20.41 39.678h-7.834A4.632 4.632 0 0 1 7.96 35.08V19.498A2.878 2.878 0 0 1 9 17.301l1.38-1.021a1.532 1.532 0 0 0-1.772-2.435L7.195 14.9a5.926 5.926 0 0 0-2.3 4.598v15.599a7.697 7.697 0 0 0 7.68 7.68h7.834a1.533 1.533 0 1 0 0-3.065v-.034Z"/>
  <path fill="#fff" d="M41.695 19.464a5.977 5.977 0 0 0-2.23-4.598L27.698 5.483a7.067 7.067 0 0 0-8.855 0l-3.73 2.708a1.562 1.562 0 1 0 1.822 2.537l3.78-2.827a4.019 4.019 0 0 1 5.11 0l11.766 9.384a2.878 2.878 0 0 1 1.09 2.213v15.599a4.598 4.598 0 0 1-4.597 4.598h-3.492a.647.647 0 0 1-.647-.648v-7.032a4.07 4.07 0 0 0-4.053-4.07h-5.108a4.07 4.07 0 0 0-4.07 4.07v2.69a1.533 1.533 0 0 0 3.065 0v-2.69a.988.988 0 0 1 .988-1.005h5.108c.546 0 .988.442.988.987v7.05a3.73 3.73 0 0 0 3.73 3.713h3.405a7.68 7.68 0 0 0 7.68-7.68l.017-15.616Z"/>
</svg>
